<svg xmlns="http://www.w3.org/2000/svg" width="14" height="13" viewBox="0 0 14 13" fill="none">
  <path d="M1.10026 1.0696C1.88057 0.328473 2.94546 0 3.9096 0C5.50986 0 6.49427 0.903965 6.99998 1.44513C7.50569 0.903965 8.49009 0 10.0903 0C11.0545 0 12.1194 0.328473 12.8997 1.0696C13.6964 1.82631 14.1595 2.97956 13.9494 4.5262C13.7396 6.07114 12.806 7.56826 11.581 8.9596C10.3496 10.3582 8.78191 11.6961 7.23175 12.9187C7.0944 13.0271 6.90555 13.0271 6.7682 12.9187C5.21805 11.6961 3.65038 10.3582 2.419 8.9596C1.194 7.56826 0.260413 6.07114 0.0505243 4.52621C-0.159597 2.97957 0.303558 1.8263 1.10026 1.0696Z" fill="#CB11AB"/>
</svg>